<?xml version="1.0" encoding="UTF-8"?>
<svg width="491px" height="618px" viewBox="0 0 491 618" version="1.1" xmlns="http://www.w3.org/2000/svg" xmlns:xlink="http://www.w3.org/1999/xlink">
    <!-- Generator: Sketch 43.2 (39069) - http://www.bohemiancoding.com/sketch -->
    <title>Group 10</title>
    <desc>Created with Sketch.</desc>
    <defs></defs>
    <g id="Page-1" stroke="none" stroke-width="1" fill="none" fill-rule="evenodd">
        <g id="Group-10" transform="translate(1.000000, 1.000000)" stroke="#979797">
            <path d="M420.392217,119.879821 C410.320068,88.770098 381.109944,66.2734375 346.645444,66.2734375 C303.843376,66.2734375 269.145444,100.971369 269.145444,143.773438 C269.145444,186.575506 303.843376,221.273438 346.645444,221.273438 C377.448676,221.273438 404.05461,203.302669 416.550935,177.273442 L346.145444,177.273438 L346.145444,149.273438 L347.145444,149.273437 L347.145444,149.879821 L489.158871,149.879821 C485.61242,225.749382 422.978116,286.171875 346.231382,286.171875 C267.2072,286.171875 203.145444,222.110119 203.145444,143.085938 C203.145444,64.0617563 267.2072,0 346.231382,0 C417.354249,0 476.357175,51.8916336 487.445082,119.879821 L420.392217,119.879821 Z" id="Combined-Shape" fill="#D2D2D2"></path>
            <path d="M130.715757,68.765625 L197.067319,68.765625 L196.969663,0.484375 L1.14544404,0 L1.14544404,68.765625 L59.6259128,68.765625 L59.6259128,286.445313 L130.715757,286.445312 L130.715757,68.765625 Z" id="Combined-Shape" fill="#D2D2D2"></path>
            <path d="M304.089844,398.765625 L460,398.765625 L459.886863,330.484375 L233.019531,330 L233.019531,398.011719 L233,398.011719 L233,616.445313 L304.089844,616.445312 L304.089844,504.765625 L401,504.765625 L400.916261,446.413936 L304.089844,446.175246 L304.089844,398.765625 Z" id="Combined-Shape" fill="#FFAA00"></path>
            <path d="M58.6259128,330.144653 L0.145444036,330 L0.145444036,398.765625 L58.6259128,398.765625 L58.6259128,547.679688 L0.145444036,547.679688 L0.145444036,616.445313 L58.6259128,616.30066 L58.6259128,616.445313 L129.715757,616.445312 L129.715757,616.124818 L195.969663,615.960938 L196.067319,547.679688 L129.715757,547.679688 L129.715757,398.765625 L196.067319,398.765625 L195.969663,330.484375 L129.715757,330.320495 L129.715757,330 L58.6259128,330 L58.6259128,330.144653 Z" id="Combined-Shape" fill="#D2D2D2"></path>
        </g>
    </g>
</svg>